<svg width="40" height="56" viewBox="0 0 40 56" fill="none" xmlns="http://www.w3.org/2000/svg">
<path d="M17.4053 0L0 27.1673L19.6847 36.8219L39.0559 27.1588L21.96 0H20.7609H17.4053ZM17.507 7.87077V17.2886L9.01617 21.131L17.507 7.87077ZM21.8456 7.95954L30.1288 21.1184L21.8456 17.3225V7.95954ZM17.507 22.0399V30.9293L8.08405 26.305L17.507 22.0399ZM21.8456 22.0906L31.0566 26.3092L21.8456 30.904V22.0906ZM0.152529 31.407V36.8599L17.3502 56H19.6763H22.0023L39.2 36.8599V31.407L19.6763 41.3913L0.152529 31.407ZM9.961 41.2899L17.507 45.1492V49.6848L9.961 41.2899ZM29.3915 41.2899L21.8456 49.6848V45.1492L29.3915 41.2899Z" fill="white"/>
</svg>
