<svg width="38" height="38" viewBox="0 0 38 38" fill="none" xmlns="http://www.w3.org/2000/svg">
<path d="M23.5 34.4667V28.2C23.718 26.2374 23.1552 24.2679 21.9334 22.7167C26.6334 22.7167 31.3334 19.5833 31.3334 14.1C31.4587 12.1417 30.9104 10.2147 29.7667 8.61667C30.2054 6.815 30.2054 4.935 29.7667 3.13333C29.7667 3.13333 28.2 3.13333 25.0667 5.48333C20.9307 4.7 16.6694 4.7 12.5334 5.48333C9.40003 3.13333 7.83336 3.13333 7.83336 3.13333C7.36336 4.935 7.36336 6.815 7.83336 8.61667C6.69263 10.2082 6.13897 12.146 6.26669 14.1C6.26669 19.5833 10.9667 22.7167 15.6667 22.7167C15.0557 23.4843 14.6014 24.3617 14.335 25.3017C14.0687 26.2417 13.9904 27.2287 14.1 28.2V34.4667" stroke="white" stroke-width="2" stroke-linecap="round" stroke-linejoin="round"/>
<path d="M14.1 28.2C7.0343 31.3333 6.26663 25.0667 3.1333 25.0667" stroke="white" stroke-width="2" stroke-linecap="round" stroke-linejoin="round"/>
</svg>
