<svg width="38" height="38" viewBox="0 0 38 38" fill="none" xmlns="http://www.w3.org/2000/svg">
<path d="M25.4667 12.5333C27.9597 12.5333 30.3506 13.5237 32.1135 15.2865C33.8763 17.0494 34.8666 19.4403 34.8666 21.9333V32.9H28.6V21.9333C28.6 21.1023 28.2699 20.3053 27.6823 19.7177C27.0946 19.1301 26.2977 18.8 25.4667 18.8C24.6356 18.8 23.8387 19.1301 23.251 19.7177C22.6634 20.3053 22.3333 21.1023 22.3333 21.9333V32.9H16.0667V21.9333C16.0667 19.4403 17.057 17.0494 18.8198 15.2865C20.5827 13.5237 22.9736 12.5333 25.4667 12.5333Z" stroke="white" stroke-width="2" stroke-linecap="round" stroke-linejoin="round"/>
<path d="M9.79999 14.1H3.53333V32.9H9.79999V14.1Z" stroke="white" stroke-width="2" stroke-linecap="round" stroke-linejoin="round"/>
<path d="M6.66666 9.4C8.39715 9.4 9.79999 7.99716 9.79999 6.26667C9.79999 4.53617 8.39715 3.13333 6.66666 3.13333C4.93617 3.13333 3.53333 4.53617 3.53333 6.26667C3.53333 7.99716 4.93617 9.4 6.66666 9.4Z" stroke="white" stroke-width="2" stroke-linecap="round" stroke-linejoin="round"/>
</svg>
