<svg width="157" height="85" viewBox="0 0 157 85" fill="none" xmlns="http://www.w3.org/2000/svg">
<path d="M26.4053 15L9 42.1673L28.6847 51.8219L48.0559 42.1588L30.96 15H29.7609H26.4053ZM26.507 22.8708V32.2886L18.0162 36.131L26.507 22.8708ZM30.8456 22.9595L39.1288 36.1184L30.8456 32.3225V22.9595ZM26.507 37.0399V45.9293L17.084 41.305L26.507 37.0399ZM30.8456 37.0906L40.0566 41.3092L30.8456 45.904V37.0906ZM9.15253 46.407V51.8599L26.3502 71H28.6763H31.0023L48.2 51.8599V46.407L28.6763 56.3913L9.15253 46.407ZM18.961 56.2899L26.507 60.1492V64.6848L18.961 56.2899ZM38.3915 56.2899L30.8456 64.6848V60.1492L38.3915 56.2899Z" fill="white"/>
<path d="M64.2565 61.56L74.7325 38.268H79.2685L69.1165 61.56H64.2565ZM68.4685 54.072L60.7645 38.268H66.4165L72.3565 51.552L68.4685 54.072ZM96.4956 52.596C95.7996 53.148 94.9236 53.592 93.8676 53.928C92.8356 54.264 91.8156 54.432 90.8076 54.432C89.0076 54.432 87.4356 54.108 86.0916 53.46C84.7716 52.788 83.7396 51.84 82.9956 50.616C82.2756 49.368 81.9156 47.868 81.9156 46.116C81.9156 44.364 82.3116 42.876 83.1036 41.652C83.8956 40.404 84.9276 39.456 86.1996 38.808C87.4956 38.16 88.8516 37.836 90.2676 37.836C91.6836 37.836 92.9076 38.028 93.9396 38.412C94.9956 38.796 95.8956 39.3 96.6396 39.924L94.1916 43.164C93.8556 42.9 93.3876 42.636 92.7876 42.372C92.2116 42.084 91.5276 41.94 90.7356 41.94C90.0396 41.94 89.4036 42.12 88.8276 42.48C88.2516 42.84 87.7956 43.332 87.4596 43.956C87.1236 44.58 86.9556 45.3 86.9556 46.116C86.9556 46.884 87.1356 47.592 87.4956 48.24C87.8556 48.888 88.3476 49.404 88.9716 49.788C89.6196 50.148 90.3756 50.328 91.2396 50.328C91.7916 50.328 92.2956 50.256 92.7516 50.112C93.2316 49.944 93.6396 49.716 93.9756 49.428L96.4956 52.596ZM101.806 54V25.596H106.738V41.436L106.702 40.824C107.254 39.84 108.034 39.048 109.042 38.448C110.05 37.824 111.286 37.512 112.75 37.512C114.238 37.512 115.474 37.956 116.458 38.844C117.466 39.708 117.982 40.836 118.006 42.228V54H112.966V44.1C112.942 43.404 112.75 42.852 112.39 42.444C112.054 42.012 111.478 41.796 110.662 41.796C109.894 41.796 109.222 42.048 108.646 42.552C108.07 43.056 107.626 43.74 107.314 44.604C107.002 45.468 106.846 46.464 106.846 47.592V54H101.806ZM123.397 45.936C123.397 44.328 123.769 42.888 124.513 41.616C125.281 40.344 126.349 39.348 127.717 38.628C129.085 37.884 130.657 37.512 132.433 37.512C134.233 37.512 135.793 37.884 137.113 38.628C138.433 39.348 139.441 40.344 140.137 41.616C140.857 42.888 141.217 44.328 141.217 45.936C141.217 47.544 140.857 48.996 140.137 50.292C139.441 51.564 138.433 52.572 137.113 53.316C135.793 54.06 134.209 54.432 132.361 54.432C130.633 54.432 129.085 54.096 127.717 53.424C126.373 52.752 125.317 51.78 124.549 50.508C123.781 49.236 123.397 47.712 123.397 45.936ZM128.473 45.972C128.473 46.788 128.641 47.532 128.977 48.204C129.313 48.852 129.769 49.368 130.345 49.752C130.921 50.136 131.569 50.328 132.289 50.328C133.081 50.328 133.765 50.136 134.341 49.752C134.917 49.368 135.361 48.852 135.673 48.204C135.985 47.532 136.141 46.788 136.141 45.972C136.141 45.132 135.985 44.388 135.673 43.74C135.361 43.092 134.917 42.576 134.341 42.192C133.765 41.808 133.081 41.616 132.289 41.616C131.569 41.616 130.921 41.808 130.345 42.192C129.769 42.576 129.313 43.092 128.977 43.74C128.641 44.388 128.473 45.132 128.473 45.972Z" fill="white"/>
</svg>
